<svg xmlns="http://www.w3.org/2000/svg" width="1695" height="291" fill="none" xmlns:v="https://vecta.io/nano"><g clip-path="url(#A)" fill="#e41513"><path d="M457.954 174.684l38.32-106.29c1.54-4.02 4.04-7.26 7.49-9.69s7.25-3.66 11.41-3.66h1.6c3.8 0 7.25.89 10.34 2.65 3.09 1.77 5.56 4.09 7.4 6.95s3 6.07 3.47 9.6c.48 3.54 0 7.14-1.42 10.79l-52.94 135.56c-2.02 5.37-5.32 9.6-9.89 12.72-4.57 3.11-9.59 4.67-15.06 4.67h-.36c-5.59 0-10.63-1.56-15.15-4.67s-7.78-7.35-9.8-12.72l-53.11-135.93c-1.43-3.54-1.9-7.07-1.43-10.61s1.63-6.71 3.47-9.52c1.84-2.8 4.28-5.09 7.31-6.86s6.39-2.65 10.07-2.65h.53c4.39 0 8.38 1.28 11.94 3.84s6.12 5.98 7.66 10.25l38.14 105.56.01.01zm105.947-106.2c1.13-2.62 2.67-4.94 4.63-6.95s4.22-3.59 6.77-4.76c2.55-1.16 5.32-1.74 8.29-1.74h85.6c2.73 0 5.28.55 7.66 1.65s4.46 2.56 6.24 4.39 3.21 3.97 4.28 6.4c1.07 2.44 1.6 5.06 1.6 7.87v.55c0 2.81-.53 5.43-1.6 7.87s-2.5 4.57-4.28 6.4-3.86 3.29-6.24 4.39-4.93 1.65-7.66 1.65h-64.39v29.64h52.45a18.52 18.52 0 0 1 7.49 1.56c2.38 1.04 4.43 2.44 6.15 4.21s3.09 3.87 4.1 6.31a19.88 19.88 0 0 1 1.51 7.68v.55a19.4 19.4 0 0 1-1.51 7.59c-1.01 2.38-2.38 4.48-4.1 6.31s-3.77 3.27-6.15 4.3c-2.38 1.04-4.87 1.56-7.49 1.56h-52.45v30.92h64.39c2.73 0 5.28.55 7.66 1.64 2.38 1.1 4.46 2.56 6.24 4.39s3.21 3.96 4.28 6.4 1.6 5.06 1.6 7.87v.55c0 2.81-.53 5.43-1.6 7.87s-2.5 4.57-4.28 6.4-3.86 3.29-6.24 4.39-4.93 1.65-7.66 1.65h-85.6c-2.97 0-5.73-.58-8.29-1.74s-4.81-2.75-6.77-4.76-3.51-4.33-4.63-6.95c-1.13-2.62-1.69-5.45-1.69-8.51V76.994c0-3.05.56-5.88 1.69-8.5v-.01zm279.853-.37a22.46 22.46 0 0 1 5.07-6.86c2.12-1.95 4.6-3.48 7.45-4.57 2.85-1.1 5.86-1.65 9.04-1.65h.4c3.18 0 6.19.58 9.04 1.74s5.33 2.72 7.45 4.67a22.46 22.46 0 0 1 5.07 6.86c1.26 2.62 1.89 5.4 1.89 8.33v136.84c0 3.42-.7 6.62-2.09 9.61s-3.28 5.58-5.66 7.77c-2.38 2.2-5.2 3.93-8.45 5.21s-6.72 1.92-10.43 1.92h-.4c-4.24 0-8.22-.85-11.93-2.56s-6.82-4.09-9.34-7.14l-81.49-98.42v86.53c0 3.05-.63 5.89-1.89 8.51a22.46 22.46 0 0 1-5.07 6.86c-2.12 1.95-4.61 3.48-7.45 4.57-2.85 1.1-5.86 1.65-9.04 1.65h-.4c-3.18 0-6.19-.58-9.04-1.74s-5.34-2.71-7.45-4.67a22.46 22.46 0 0 1-5.07-6.86c-1.26-2.62-1.89-5.4-1.89-8.33V81.374c0-3.66.76-7.07 2.29-10.25a27.31 27.31 0 0 1 6.16-8.33c2.59-2.38 5.6-4.27 9.04-5.67s7.15-2.1 11.13-2.1h.6c4.5 0 8.74.91 12.72 2.75 3.97 1.83 7.29 4.39 9.94 7.68l77.91 94.03v-82.87c0-3.05.63-5.88 1.89-8.51v.01zm157.386-8.32c4.75 3.17 8.26 7.5 10.52 12.99l56.5 136.11c1.43 3.42 1.93 6.86 1.52 10.34-.42 3.48-1.52 6.59-3.3 9.33s-4.13 5-7.04 6.77-6.21 2.66-9.89 2.66h-.53c-4.16 0-7.96-1.19-11.41-3.57s-5.94-5.52-7.49-9.42l-10.52-26.71h-69.509l-10.7 26.89c-1.55 3.9-3.98 7.01-7.31 9.33s-7.07 3.48-11.23 3.48h-.36c-3.57 0-6.77-.85-9.62-2.56s-5.17-3.94-6.95-6.68-2.88-5.79-3.3-9.15c-.41-3.35.09-6.74 1.52-10.15l25.66-61.74 17.64-42.53 13.55-32.38c2.25-5.49 5.76-9.82 10.52-12.99 4.75-3.17 9.98-4.76 15.69-4.76h.35c5.7 0 10.93 1.59 15.689 4.76v-.02zm2.85 99.52l-19.249-48.11-19.07 48.11h38.319zm206.18-91.2a22.46 22.46 0 0 1 5.07-6.86c2.12-1.95 4.6-3.48 7.46-4.57 2.85-1.1 5.87-1.65 9.05-1.65h.4c3.18 0 6.19.58 9.05 1.74 2.85 1.16 5.33 2.72 7.46 4.67a22.46 22.46 0 0 1 5.07 6.86c1.26 2.62 1.89 5.4 1.89 8.33v136.84c0 3.42-.7 6.62-2.09 9.61s-3.28 5.58-5.67 7.77c-2.39 2.2-5.2 3.93-8.45 5.21s-6.73 1.92-10.44 1.92h-.4c-4.24 0-8.22-.85-11.93-2.56s-6.83-4.09-9.34-7.14l-81.52-98.42v86.53c0 3.05-.63 5.89-1.89 8.51a22.46 22.46 0 0 1-5.07 6.86c-2.12 1.95-4.61 3.48-7.46 4.57-2.85 1.1-5.87 1.65-9.05 1.65h-.4c-3.18 0-6.2-.58-9.05-1.74s-5.34-2.71-7.46-4.67a22.46 22.46 0 0 1-5.07-6.86c-1.26-2.62-1.89-5.4-1.89-8.33V81.374c0-3.66.76-7.07 2.29-10.25a27.31 27.31 0 0 1 6.16-8.33c2.59-2.38 5.6-4.27 9.05-5.67 3.44-1.4 7.16-2.1 11.13-2.1h.6c4.5 0 8.75.91 12.72 2.75 3.98 1.83 7.29 4.39 9.94 7.68l77.94 94.03v-82.87c0-3.05.63-5.88 1.89-8.51l.01.01zm214.99 123.03c2.14 2.2 3.68 4.64 4.63 7.32.95 2.69 1.34 5.43 1.16 8.23a20.34 20.34 0 0 1-2.23 8.05c-1.31 2.56-3.09 4.82-5.35 6.77l-5.88 4.39-4.63 2.75-4.81 2.56c-5.59 2.81-11.94 4.94-19.07 6.4-6.77 1.46-14.44 2.2-22.99 2.2-13.07 0-25.01-2.38-35.83-7.14-11.05-4.88-20.62-11.46-28.7-19.76-8.08-8.54-14.38-18.41-18.89-29.64-4.52-11.46-6.77-23.54-6.77-36.22v-.55c0-12.93 2.25-25 6.77-36.22a89.38 89.38 0 0 1 7.93-15.64c3.15-4.94 6.8-9.61 10.96-14 7.84-8.42 17.47-15.12 28.87-20.12 11.41-4.88 23.76-7.32 37.07-7.32 4.16 0 8.08.15 11.76.46s7.25.82 10.7 1.56c3.33.61 6.53 1.4 9.62 2.38s6 2.08 8.73 3.29l3.74 1.74a97.1 97.1 0 0 1 3.56 1.74l2.41 1.46c.77.49 1.57 1.04 2.41 1.65 2.61 1.71 4.69 3.87 6.24 6.49 1.54 2.62 2.5 5.4 2.85 8.33s.12 5.85-.71 8.78-2.26 5.61-4.28 8.05l-.18.37c-1.67 2.08-3.63 3.69-5.88 4.85-2.26 1.16-4.58 1.92-6.95 2.29-2.38.37-4.78.31-7.22-.18s-4.72-1.46-6.86-2.93c-1.31-.85-2.61-1.65-3.92-2.38l-3.92-2.2c-3.33-1.71-6.83-2.99-10.52-3.84-3.68-.85-7.61-1.28-11.76-1.28-6.89 0-13.19 1.34-18.89 4.02-5.82 2.81-10.81 6.53-14.97 11.16-4.28 5-7.55 10.55-9.8 16.65-2.38 6.71-3.56 13.48-3.56 20.31v.55c0 6.95 1.19 13.79 3.56 20.49 1.19 3.17 2.55 6.16 4.1 8.96 1.54 2.81 3.39 5.43 5.52 7.87 4.16 4.64 9.15 8.36 14.97 11.16 6.06 2.81 12.42 4.21 19.07 4.21 9.38 0 17.29-1.77 23.7-5.3a70.87 70.87 0 0 0 8.2-5.31c2.02-1.46 4.16-2.5 6.42-3.11s4.55-.82 6.86-.64c2.32.18 4.55.76 6.68 1.74 2.14.98 4.1 2.38 5.88 4.21l.18.36.02-.02zM1449 67.754c1.13-2.62 2.67-4.94 4.63-6.95a22.26 22.26 0 0 1 6.77-4.76c2.55-1.16 5.32-1.74 8.29-1.74h.36c2.97 0 5.73.58 8.29 1.74 2.55 1.16 4.81 2.74 6.77 4.76 1.96 2.01 3.5 4.33 4.63 6.95s1.69 5.46 1.69 8.51v139.04c0 3.05-.56 5.91-1.69 8.6-1.13 2.68-2.67 5-4.63 6.95s-4.22 3.51-6.77 4.67c-2.56 1.16-5.32 1.74-8.29 1.74h-.36c-2.97 0-5.73-.58-8.29-1.74s-4.81-2.71-6.77-4.67c-1.96-1.95-3.51-4.27-4.63-6.95-1.13-2.68-1.69-5.55-1.69-8.6V76.264c0-3.05.56-5.88 1.69-8.51zm65.23 41.99c4.63-11.1 11.17-20.98 19.61-29.64 4.16-4.27 8.7-8.05 13.63-11.34s10.25-6.16 15.95-8.6c11.76-5 24.36-7.5 37.79-7.5 6.77-.12 13.28.49 19.51 1.83 6.24 1.34 12.27 3.23 18.09 5.67 11.52 5 21.5 11.77 29.94 20.31 8.2 8.3 14.73 18.24 19.61 29.82 4.04 9.63 6.3 19.58 6.77 29.82l.18 2.38c.12 1.34.18 2.62.18 3.84v3.84l-.18 3.29c-.12 5.49-.77 10.73-1.96 15.73s-2.79 9.88-4.81 14.64c-4.64 11.1-11.17 20.98-19.61 29.64-8.32 8.3-18.18 14.94-29.59 19.94-11.29 4.88-23.88 7.32-37.79 7.32s-26.5-2.44-37.79-7.32c-11.41-4.88-21.33-11.65-29.76-20.31-8.2-8.29-14.73-18.23-19.61-29.82-4.75-11.46-7.13-23.66-7.13-36.59v-.37c0-13.05 2.32-25.25 6.95-36.59l.02.01zm35.47 43.72c.36 4.39 1.54 8.84 3.57 13.35 1.31 3.17 2.85 6.1 4.63 8.78s3.8 5.24 6.06 7.68c4.28 4.64 9.74 8.36 16.4 11.16 6.06 2.68 13.07 4.02 21.03 4.02s14.73-1.34 20.68-4.02c6.42-2.68 11.88-6.34 16.4-10.98 4.63-4.51 8.26-9.94 10.87-16.28 2.5-6.22 3.74-12.93 3.74-20.12v-.37a51.89 51.89 0 0 0-3.92-19.94c-1.31-3.17-2.82-6.1-4.55-8.78-1.72-2.68-3.77-5.24-6.15-7.68-4.63-4.76-10.16-8.48-16.58-11.16-6.53-2.81-13.49-4.21-20.85-4.21s-14.08 1.4-20.85 4.21c-6.3 2.81-11.76 6.47-16.4 10.98-4.28 4.39-7.84 9.82-10.69 16.28-1.67 4.03-2.79 8.6-3.39 13.72l-.18 2.01c-.36 2.81-.36 5.61 0 8.42l.18 2.93zM317.543 12.144c-1.73-2.65-3.95-4.95-6.5-6.82-3.93-2.88-8.56-4.95-13.41-5.17-6.48-.3-102.7-.07-102.7-.07-1.4 0-2.53 1.12-2.52 2.52l-.08 42.85c0 5.17.3 5.47 5.53 5.47l40.78.03c9.27.03 14.41 5.68 13.86 15.14l-.02 30.53c.66 11.55-4.02 16.98-14.78 16.98h-39.75c-5.38 0-5.63.24-5.63 5.72l-.03 40.57c-.06 8.51-5.26 13.59-13.72 13.59h-35.62c-8.45 0-13.65-5.08-13.72-13.59l-.03-40.57c0-5.47-.24-5.72-5.63-5.72h-39.75c-10.76 0-15.44-5.43-14.78-16.98l-.02-30.53c-.55-9.46 4.58-15.11 13.86-15.14l40.78-.03c5.23 0 5.53-.3 5.53-5.47l-.08-42.85a2.51 2.51 0 0 0-2.52-2.52s-96.22-.23-102.7.07c-4.84.22-9.48 2.3-13.41 5.17-2.55 1.87-4.77 4.17-6.5 6.82-5.46 8.36-5.07 18.95-.27 27.5l133.66 237.52c1.51 2.67 3.31 5.19 5.57 7.27 5.23 4.81 11.56 7.05 17.8 7.02 6.24.03 12.57-2.21 17.8-7.02 2.26-2.08 4.06-4.6 5.57-7.27l133.66-237.52c4.81-8.55 5.19-19.14-.27-27.5h.04z"/></g><defs><clipPath id="A"><path fill="#fff" d="M0 0h1695v291H0z"/></clipPath></defs></svg>